<?xml version="1.0" standalone="no"?>
<!DOCTYPE svg PUBLIC "-//W3C//DTD SVG 20010904//EN"
 "http://www.w3.org/TR/2001/REC-SVG-20010904/DTD/svg10.dtd">
<svg version="1.0" xmlns="http://www.w3.org/2000/svg"
 width="1080.000000pt" height="1080.000000pt" viewBox="0 0 1080.000000 1080.000000"
 preserveAspectRatio="xMidYMid meet">

<g transform="translate(0.000000,1080.000000) scale(0.100000,-0.100000)"
fill="#000000" stroke="none">
<path d="M9341 8524 c0 -11 3 -14 6 -6 3 7 2 16 -1 19 -3 4 -6 -2 -5 -13z"/>
<path d="M9322 8464 c-26 -21 -31 -30 -26 -52 13 -59 14 -60 47 -59 l32 1 -5
62 c-3 35 -8 65 -10 68 -3 3 -20 -6 -38 -20z"/>
<path d="M9891 8342 c-1 -25 -9 -54 -20 -70 -11 -15 -22 -52 -26 -82 -5 -52
-4 -56 15 -56 15 0 23 10 32 38 6 21 15 38 19 38 10 0 3 120 -9 150 -10 23
-11 21 -11 -18z"/>
<path d="M9301 8304 c0 -11 3 -14 6 -6 3 7 2 16 -1 19 -3 4 -6 -2 -5 -13z"/>
<path d="M9332 8201 c-10 -44 -10 -56 0 -62 15 -9 22 28 16 84 -3 29 -5 27
-16 -22z"/>
<path d="M9291 8204 c0 -11 3 -14 6 -6 3 7 2 16 -1 19 -3 4 -6 -2 -5 -13z"/>
<path d="M9853 8029 c-7 -13 -14 -33 -16 -44 -1 -11 -13 -31 -25 -43 -30 -30
-28 -44 5 -40 19 2 29 10 31 23 2 11 8 29 13 41 6 11 9 36 7 54 -3 33 -3 34
-15 9z"/>
<path d="M9811 8024 c0 -11 3 -14 6 -6 3 7 2 16 -1 19 -3 4 -6 -2 -5 -13z"/>
<path d="M9756 7913 c-6 -14 -5 -15 5 -6 7 7 10 15 7 18 -3 3 -9 -2 -12 -12z"/>
<path d="M9227 7854 c-8 -14 4 -62 19 -75 11 -9 14 -8 14 4 0 23 -27 81 -33
71z"/>
<path d="M9270 7840 c0 -5 5 -10 10 -10 6 0 10 5 10 10 0 6 -4 10 -10 10 -5 0
-10 -4 -10 -10z"/>
<path d="M9210 7762 c0 -5 7 -15 15 -22 8 -7 15 -8 15 -2 0 5 -7 15 -15 22 -8
7 -15 8 -15 2z"/>
<path d="M9665 7606 c-16 -7 -37 -25 -45 -40 -13 -26 -13 -29 5 -42 30 -22 42
-17 70 29 39 68 32 80 -30 53z"/>
<path d="M9717 7543 c-4 -3 -7 -11 -7 -17 0 -6 5 -5 12 2 6 6 9 14 7 17 -3 3
-9 2 -12 -2z"/>
<path d="M4513 7132 c-26 -4 -30 -20 -9 -28 8 -3 13 -11 10 -19 -7 -16 34 -27
57 -14 18 9 44 48 37 53 -7 6 -74 12 -95 8z"/>
<path d="M4210 7120 c0 -5 7 -10 16 -10 8 0 12 5 9 10 -3 6 -10 10 -16 10 -5
0 -9 -4 -9 -10z"/>
<path d="M9917 7084 c-20 -19 -37 -37 -37 -38 0 -2 14 -3 30 -2 25 1 32 7 41
34 6 18 9 35 7 37 -2 2 -20 -12 -41 -31z"/>
<path d="M9805 7038 c-52 -44 -67 -60 -60 -66 3 -3 27 15 53 41 49 49 53 63 7
25z"/>
<path d="M9805 6978 c-33 -34 -51 -55 -40 -47 11 8 26 22 33 32 7 9 19 17 25
17 7 0 20 14 29 30 9 17 16 30 15 30 -2 0 -29 -28 -62 -62z"/>
<path d="M9912 7023 c-7 -3 -23 -15 -35 -27 -12 -11 -33 -30 -47 -41 -49 -40
-54 -52 -32 -80 18 -23 21 -24 26 -8 3 10 22 27 41 37 25 14 34 24 30 35 -13
34 -8 51 15 51 13 0 20 7 20 20 0 11 -1 20 -2 19 -2 0 -9 -3 -16 -6z"/>
<path d="M9848 6763 c-14 -16 -49 -49 -79 -75 -43 -38 -50 -48 -33 -48 12 0
31 9 44 20 13 11 27 20 31 20 4 0 18 18 31 41 15 28 31 42 50 46 34 7 37 23 5
23 -13 0 -35 -12 -49 -27z"/>
<path d="M9624 6675 c-10 -8 -14 -15 -8 -15 6 0 17 7 24 15 16 19 9 19 -16 0z"/>
<path d="M9395 6550 c3 -5 10 -10 16 -10 5 0 9 5 9 10 0 6 -7 10 -16 10 -8 0
-12 -4 -9 -10z"/>
<path d="M9468 6489 c-25 -14 -22 -29 5 -29 23 0 47 17 47 32 0 11 -31 9 -52
-3z"/>
<path d="M10151 6463 c-19 -8 -71 -55 -81 -73 -4 -8 -11 -34 -15 -58 -7 -41
-6 -43 12 -32 10 7 27 26 36 42 9 16 21 27 26 24 11 -7 51 58 51 85 0 20 -5
22 -29 12z"/>
<path d="M10210 6338 c0 -20 -20 -34 -29 -21 -3 6 -17 14 -30 18 -17 5 -22 4
-19 -6 3 -8 1 -18 -4 -24 -4 -5 -24 -33 -43 -62 -29 -44 -33 -56 -25 -78 12
-33 20 -32 60 10 18 19 46 37 62 40 25 6 28 11 28 49 0 23 5 47 12 54 9 9 9
15 0 24 -9 9 -12 8 -12 -4z"/>
<path d="M8160 6275 c0 -8 4 -15 10 -15 5 0 7 7 4 15 -4 8 -8 15 -10 15 -2 0
-4 -7 -4 -15z"/>
<path d="M8300 6280 c0 -5 5 -10 11 -10 5 0 7 5 4 10 -3 6 -8 10 -11 10 -2 0
-4 -4 -4 -10z"/>
<path d="M8120 6251 c-8 -6 -18 -7 -22 -5 -5 3 -8 2 -7 -3 4 -24 -2 -43 -13
-37 -7 4 -8 3 -4 -4 13 -21 31 -12 48 23 10 19 17 35 15 35 -1 0 -9 -4 -17 -9z"/>
<path d="M9613 6088 c-23 -11 -31 -28 -13 -28 6 0 10 5 10 10 0 6 7 10 15 10
8 0 15 5 15 10 0 12 1 12 -27 -2z"/>
<path d="M9700 6060 c-13 -11 -29 -20 -37 -20 -15 0 -18 -26 -4 -35 11 -6 41
21 41 37 0 5 7 7 16 4 25 -10 63 4 57 20 -8 20 -46 17 -73 -6z"/>
<path d="M9455 6010 c-8 -13 5 -13 25 0 13 8 13 10 -2 10 -9 0 -20 -4 -23 -10z"/>
<path d="M9515 5993 c-33 -14 -68 -29 -77 -34 -10 -5 -25 -9 -35 -9 -9 0 -14
-3 -11 -6 3 -3 30 0 59 6 30 6 67 13 82 15 38 6 69 24 64 38 -6 18 -19 16 -82
-10z"/>
<path d="M9791 6001 c-16 -12 -20 -21 -12 -25 6 -4 11 -19 11 -34 0 -21 -5
-28 -20 -28 -12 0 -20 7 -20 17 0 24 -26 44 -37 27 -4 -7 -12 -13 -18 -13 -21
-1 -101 -27 -112 -37 -22 -18 -14 -29 15 -22 24 7 26 6 13 -10 -8 -9 -12 -18
-10 -20 2 -3 42 -8 89 -13 72 -7 85 -11 88 -27 3 -11 -4 -25 -13 -32 -13 -10
-16 -21 -11 -49 6 -32 4 -36 -21 -46 -35 -13 -43 -25 -43 -66 0 -29 3 -33 27
-33 30 0 107 73 123 116 5 13 16 24 25 24 10 0 15 9 15 27 0 30 15 85 36 126
11 22 11 27 0 27 -8 0 -19 13 -26 30 -7 16 -17 27 -23 23 -6 -3 -7 -1 -3 5 9
15 -15 52 -34 52 -8 0 -26 -9 -39 -19z m-73 -101 c15 0 15 -20 2 -40 -9 -13
-12 -12 -25 4 -8 11 -15 26 -15 33 0 7 -5 13 -11 13 -5 0 -7 5 -4 11 5 7 13 5
24 -5 10 -9 23 -16 29 -16z m99 -122 c-3 -8 -6 -5 -6 6 -1 11 2 17 5 13 3 -3
4 -12 1 -19z"/>
<path d="M7517 5653 c-3 -5 -1 -29 4 -53 16 -70 14 -163 -5 -200 -20 -40 -20
-40 -1 -40 12 0 15 -19 16 -107 0 -60 3 -200 5 -312 4 -181 3 -206 -12 -222
-16 -18 -16 -19 -1 -19 14 0 17 -11 17 -62 0 -52 -6 -72 -36 -127 -42 -77 -92
-137 -134 -162 -30 -18 -30 -18 -30 1 0 12 -7 23 -15 26 -11 5 -15 22 -15 65
0 32 4 59 9 59 12 0 63 51 105 105 86 113 78 223 -19 273 -16 8 -29 7 -54 -6
-60 -28 -126 -209 -138 -374 -5 -80 -4 -91 20 -140 30 -61 79 -93 127 -83 38
8 101 65 140 125 18 27 34 50 37 50 2 0 2 -19 -2 -42 -5 -37 -1 -50 25 -91 17
-26 37 -50 45 -54 39 -14 112 78 184 232 24 49 48 93 54 97 9 5 7 12 -5 24 -9
9 -21 14 -26 10 -5 -3 -29 -43 -52 -88 -46 -91 -114 -188 -132 -188 -8 0 -10
150 -5 573 4 327 2 589 -3 611 -16 70 -85 149 -103 119z m-101 -916 c-6 -41
-73 -164 -83 -154 -8 9 18 90 49 150 16 33 32 57 35 53 3 -3 2 -25 -1 -49z"/>
<path d="M3410 5589 c-36 -5 -85 -6 -110 -3 -51 6 -94 -7 -119 -35 -16 -19
-70 -41 -101 -41 -25 0 -171 -82 -167 -94 8 -23 40 -16 120 24 45 23 95 46
111 51 28 8 28 8 21 -29 -3 -20 -11 -41 -16 -46 -16 -17 -10 -36 11 -36 21 0
21 -2 14 -417 -5 -273 -11 -420 -17 -425 -6 -3 -49 -9 -96 -13 -96 -7 -116
-14 -116 -41 0 -17 11 -20 80 -26 44 -3 95 -9 113 -13 l33 -7 -6 -57 c-17
-173 -44 -554 -45 -623 0 -65 -16 -42 -30 43 -8 55 -19 88 -32 101 -39 39 -43
9 -20 -149 27 -189 68 -298 119 -319 40 -17 74 -18 108 -2 21 10 25 16 20 37
-37 146 -58 673 -39 949 l7 90 36 7 c55 10 190 55 251 85 223 107 398 266 475
432 23 49 23 54 8 65 -14 11 -52 9 -75 -3 -3 -3 -23 -34 -43 -70 -61 -109
-216 -260 -352 -342 -53 -32 -197 -94 -245 -106 -14 -3 -33 -9 -42 -12 -14 -6
-16 18 -16 233 0 232 14 603 26 691 8 61 24 66 244 66 l185 1 73 -34 c112 -53
161 -117 187 -248 7 -37 1 -42 -65 -50 -28 -3 -53 -9 -55 -14 -3 -4 7 -25 21
-48 l27 -40 81 6 c45 3 83 7 85 9 2 2 -2 10 -9 19 -7 9 -11 17 -8 20 6 6 171
34 178 30 8 -5 -6 -145 -21 -206 -8 -36 -8 -52 2 -67 10 -16 9 -40 -6 -128 -9
-60 -23 -143 -29 -184 -15 -92 -60 -182 -131 -256 -57 -61 -98 -72 -109 -31
-13 48 -7 136 11 149 62 48 137 136 163 191 42 88 39 118 -18 180 -50 53 -104
26 -156 -78 -43 -88 -84 -208 -96 -287 -14 -99 -2 -148 50 -200 42 -42 80 -49
129 -24 30 16 102 90 121 126 10 18 14 20 21 9 5 -8 9 -27 9 -42 0 -34 63
-103 102 -113 36 -8 71 28 115 117 l31 62 7 -47 c10 -61 54 -116 95 -116 33 0
73 42 103 110 l20 45 7 -30 c10 -47 27 -72 64 -94 41 -26 78 -27 98 -3 9 9 31
46 49 82 l32 65 9 -31 c4 -17 28 -50 53 -73 37 -34 51 -41 85 -41 36 0 47 6
89 49 51 53 111 158 141 248 20 61 19 73 -9 73 -12 0 -24 -18 -40 -64 -42
-120 -157 -265 -197 -249 -17 6 -34 65 -34 116 0 34 7 45 54 88 61 56 109 125
126 184 17 57 -5 108 -55 132 -33 16 -39 16 -63 2 -44 -24 -97 -112 -132 -216
-50 -152 -135 -323 -160 -323 -41 0 -38 301 6 580 8 52 18 139 21 192 7 113
-4 105 150 114 71 5 116 3 148 -6 56 -16 89 -53 81 -92 -5 -25 -2 -28 19 -28
22 0 25 4 25 36 0 50 -30 87 -91 113 -46 20 -65 22 -185 19 l-134 -3 0 33 c0
42 -26 82 -54 82 -19 0 -22 -6 -24 -57 -1 -32 -6 -61 -10 -64 -4 -4 -33 -12
-65 -18 -52 -9 -59 -9 -77 9 -20 20 -42 23 -205 25 -39 0 -40 1 -43 40 -4 47
-26 75 -59 75 -22 0 -23 -4 -23 -60 0 -59 0 -60 -29 -60 -15 0 -55 -3 -88 -6
l-61 -7 -7 41 c-11 68 -59 155 -109 199 -67 59 -150 89 -280 102 -121 12 -151
12 -246 0z m1100 -374 c-8 -2 -48 -9 -88 -15 -42 -7 -76 -18 -78 -25 -3 -7 2
-27 11 -45 16 -30 17 -31 78 -28 55 3 62 5 60 23 -2 18 9 23 75 38 42 9 89 17
105 17 34 0 34 -8 7 -141 -14 -70 -18 -105 -11 -118 6 -10 9 -20 7 -22 -3 -2
-14 -83 -26 -179 -18 -150 -26 -185 -56 -254 -19 -44 -45 -93 -56 -109 l-22
-30 -9 28 c-12 34 9 283 25 303 6 7 13 44 15 83 5 78 -10 109 -52 109 -23 0
-23 -1 -60 -205 -21 -116 -150 -354 -178 -326 -26 26 -18 226 18 466 8 50 19
162 26 250 6 88 13 166 15 173 2 9 32 12 106 11 57 -1 96 -3 88 -4z m566 -529
c-26 -52 -76 -110 -76 -87 0 17 45 121 72 167 l23 39 3 -33 c2 -21 -6 -53 -22
-86z m-1011 72 c-9 -48 -63 -153 -92 -180 l-25 -23 7 25 c12 44 97 210 107
210 6 0 7 -13 3 -32z m-895 -283 c0 -13 -4 -14 -20 -5 -11 6 -20 13 -20 15 0
3 9 5 20 5 11 0 20 -7 20 -15z"/>
<path d="M4502 5012 c-17 -5 -15 -85 2 -127 21 -49 46 -38 46 20 0 23 3 56 6
72 5 26 3 31 -18 35 -13 2 -29 3 -36 0z"/>
<path d="M5991 5494 c-33 -23 -48 -70 -87 -268 -39 -198 -84 -409 -88 -413 -3
-4 -275 -73 -286 -73 -6 0 -8 10 -4 25 5 21 3 25 -15 25 -12 0 -24 -7 -28 -16
-3 -9 -26 -25 -52 -36 -72 -31 -76 -37 -45 -70 15 -15 34 -28 42 -28 8 0 92
25 188 56 96 31 177 54 180 52 7 -8 -64 -205 -101 -277 -62 -123 -170 -244
-189 -212 -3 5 -1 44 4 87 5 42 8 79 5 82 -15 15 -37 -16 -56 -78 -18 -60 -19
-75 -9 -101 19 -44 65 -89 92 -89 84 0 185 162 273 437 26 81 51 155 55 163
11 23 265 89 280 73 4 -4 31 -107 59 -228 60 -251 124 -482 146 -525 17 -33
52 -60 78 -60 16 0 17 7 13 63 -3 34 -8 100 -11 146 -3 46 -8 88 -11 92 -8 13
-35 -2 -43 -24 -5 -14 -19 22 -48 129 -60 218 -105 413 -98 424 7 11 76 13
125 3 20 -3 35 -13 37 -25 3 -10 9 -18 14 -18 6 0 9 -93 9 -216 l-1 -217 27
-28 c31 -33 62 -38 70 -11 3 9 10 26 14 37 5 11 25 70 45 130 20 61 39 117 42
125 3 8 12 -33 18 -91 18 -149 22 -164 57 -198 50 -48 67 -49 103 -6 l32 37
16 -26 c50 -76 142 13 212 205 19 52 34 87 35 79 0 -8 7 -76 15 -150 8 -74 15
-165 15 -202 0 -62 -2 -68 -22 -72 -64 -13 -132 -26 -218 -42 -52 -9 -104 -23
-115 -31 -20 -13 -20 -14 3 -19 31 -9 28 -18 -15 -38 -83 -40 -175 -127 -214
-205 -20 -38 -24 -61 -24 -136 1 -81 4 -96 32 -151 34 -65 80 -112 131 -133
92 -38 286 85 380 242 54 89 103 214 121 303 14 71 19 84 36 84 11 1 52 5 90
9 39 5 142 5 230 0 178 -9 322 -40 408 -87 l49 -26 -6 -61 c-7 -74 9 -105 55
-105 52 0 69 16 69 64 0 48 -17 106 -31 106 -17 0 -9 16 27 58 36 42 61 55 50
26 -19 -49 -18 -64 2 -64 11 0 23 8 26 18 10 31 46 62 71 62 36 0 31 22 -15
64 -27 24 -50 36 -69 36 -38 0 -48 -16 -26 -40 17 -19 17 -20 -7 -29 -13 -5
-42 -27 -63 -49 l-40 -40 -46 33 c-106 76 -383 143 -625 152 l-151 6 -12 121
c-6 66 -21 199 -32 295 -16 141 -18 176 -7 182 9 6 4 18 -22 46 -45 48 -51 53
-74 53 -16 0 -18 -5 -13 -45 l6 -44 -34 21 c-44 25 -76 18 -109 -25 -34 -44
-72 -151 -91 -253 -16 -82 -60 -202 -71 -191 -13 13 -25 91 -34 226 -8 133
-11 147 -33 169 -48 48 -72 17 -152 -199 l-34 -94 2 192 c2 190 2 191 -22 217
-27 29 -59 34 -67 11 -4 -11 -13 -13 -27 -9 -12 4 -55 10 -97 13 l-75 6 -11
50 c-13 58 -53 235 -84 380 -24 112 -37 138 -79 159 -25 13 -31 13 -50 0z m44
-121 c3 -21 29 -136 56 -255 27 -120 49 -221 49 -225 0 -5 -55 -20 -122 -36
-135 -30 -142 -31 -134 -19 3 5 28 120 55 256 69 338 79 368 96 279z m1002
-668 c-6 -58 -59 -197 -102 -271 l-30 -49 -3 34 c-6 62 56 291 94 349 16 25
17 25 31 6 10 -13 13 -34 10 -69z m-171 -660 c20 -30 25 -31 142 -4 51 12 94
20 97 18 11 -12 -38 -165 -77 -240 -52 -102 -75 -134 -150 -210 -45 -46 -67
-61 -113 -74 -93 -27 -138 -9 -179 73 -11 22 -18 61 -19 110 -1 91 22 149 88
221 42 46 161 131 182 131 7 0 20 -11 29 -25z m1184 -176 c0 -11 -4 -17 -10
-14 -5 3 -10 15 -10 26 0 11 5 17 10 14 6 -3 10 -15 10 -26z"/>
<path d="M9602 5080 c3 -9 -6 -22 -24 -32 -15 -10 -28 -25 -28 -35 0 -13 9 -9
37 18 21 18 39 34 41 35 1 1 -5 7 -14 15 -15 12 -17 12 -12 -1z"/>
<path d="M8220 3218 c-120 -62 -119 -228 3 -289 51 -26 134 -23 175 8 68 50
93 144 57 213 -42 81 -150 112 -235 68z m182 -47 c27 -24 32 -36 36 -87 3 -49
1 -63 -17 -84 -17 -21 -22 -23 -31 -10 -5 8 -10 30 -10 48 0 17 -4 32 -10 32
-5 0 -1 13 8 30 15 27 16 32 2 57 -14 25 -23 29 -80 34 l-65 6 67 1 c61 2 71
-1 100 -27z m-182 -96 c0 -87 3 -105 15 -105 11 0 15 12 15 46 l0 45 48 -3
c46 -3 47 -4 50 -38 2 -19 10 -40 18 -47 14 -10 13 -13 -5 -22 -48 -26 -144
-4 -175 40 -32 47 -14 189 25 189 5 0 9 -46 9 -105z m104 85 c18 -7 26 -17 26
-34 0 -27 -16 -36 -66 -36 -32 0 -34 2 -34 33 0 19 3 37 7 40 9 10 38 9 67 -3z"/>
</g>
</svg>
